<svg xmlns="http://www.w3.org/2000/svg" version="1.1" xmlns:xlink="http://www.w3.org/1999/xlink" viewBox="0 0 14.297647485963648 3.7196741865929175"><g transform="matrix(0.7124287229886653,0,0,0.7124287229886653,5.144357146078598,1.4831404060162021)"><rect width="15.799090958676695" height="15.799090958676695" x="-5.085977564088647" y="-7.370795479338348" fill="#ffffff"></rect><g transform="matrix(1,0,0,1,0,0)" clip-path="url(#SvgjsClipPath10078)"><g clip-path="url(#SvgjsClipPath10073aa9666b8-2c5d-46b4-9948-234c148df1b2)"><path d=" M -0.8831744585149952 0.5287499999999999 C -0.8831744585149952 1.141297553084501 -1.37974226237043 1.637865356939935 -1.9922898154549304 1.637865356939935 C -2.6048373685394313 1.637865356939935 -3.1014051723948657 1.141297553084501 -3.1014051723948657 0.5287499999999999 C -3.1014051723948657 -0.08379755308450076 -2.6048373685394313 -0.5803653569399353 -1.9922898154549304 -0.5803653569399353 C -1.37974226237043 -0.5803653569399353 -0.8831744585149952 -0.08379755308450076 -0.8831744585149952 0.5287499999999999 Z" fill="#424242" transform="matrix(1,0,0,1,0,0)" fill-rule="nonzero"></path></g><g clip-path="url(#SvgjsClipPath10073aa9666b8-2c5d-46b4-9948-234c148df1b2)"><path d=" M -2.0012155641701956 1.4831675590534656 C -2.3857679108104404 1.483167559053466 -2.7324547570227935 1.251518814366761 -2.87961656895913 0.8962387721266544 C -3.0267783808954687 0.5409587298865478 -2.9454341592118585 0.13201371176029564 -2.6735145871813426 -0.13990586027022078 C -2.4015950151508267 -0.41182543230073687 -1.9926499970245746 -0.49316965398434665 -1.6373699547844682 -0.34600784204800816 C -1.2820899125443592 -0.1988460301116699 -1.050441167857656 0.14784081610068067 -1.050441167857656 0.5323931627409245 C -1.0509933716817281 1.0572624618812068 -1.476346265030183 1.4826153552295436 -2.001215564170331 1.483167559053466 Z M -2.0012155641701956 -0.35007193217930094 C -2.3581393774279142 -0.35007193217930094 -2.679918173572322 -0.13506621446021938 -2.816507003522623 0.1946883912744668 C -2.953095833472922 0.5244429970091536 -2.877595865670213 0.904006966797951 -2.6252126169487195 1.1563902155194445 C -2.3728293682272237 1.4087734642409386 -1.9932653984384279 1.4842734320436488 -1.6635107927037422 1.347684602093349 C -1.3337561869690568 1.2110957721430489 -1.1187504692499743 0.8893169759986416 -1.1187504692499743 0.532393162740923 C -1.1193778500475875 0.045303380253985726 -1.5141256903861118 -0.3493833473008833 -2.0012155641702343 -0.3499353135765165 Z" fill="#ffffff" transform="matrix(1,0,0,1,0,0)" fill-rule="nonzero"></path></g><g clip-path="url(#SvgjsClipPath10073aa9666b8-2c5d-46b4-9948-234c148df1b2)"><path d=" M -1.8760729240194693 1.5655030369983391 C -1.8850653780751625 1.5654482542481936 -1.8924745684970339 1.5584292696918958 -1.8930153123650244 1.549452921483259 C -1.8935560562330125 1.5404765732746215 -1.8870430498873385 1.5326189021660612 -1.8781222030612406 1.5314850049049644 C -1.4982029144106788 1.48340339985354 -1.177959185466523 1.2250053090417508 -1.0506688655289582 0.8638298930964495 C -1.0487498958871813 0.8579522941936696 -1.0438038353538945 0.8535709951656888 -1.0377376413789836 0.8523752092288296 C -1.031671447404071 0.8511794232919693 -1.0254326913104657 0.8533559384828179 -1.0214267303174323 0.8580655976923924 C -1.017420769324401 0.8627752569019677 -1.0162733555548473 0.8692823866542428 -1.018426875271785 0.8750781580590518 C -1.1501005586190272 1.2484525573951486 -1.4811998583365473 1.5155596520094416 -1.8739781054434348 1.5652753393270316 Z" fill="#ffffff" transform="matrix(1,0,0,1,0,0)" fill-rule="nonzero"></path></g><g clip-path="url(#SvgjsClipPath10073aa9666b8-2c5d-46b4-9948-234c148df1b2)"><path d=" M -0.9929247360853206 0.7263004996265833 C -0.9939102636002257 0.7263682321157193 -0.994899278297412 0.7263682321157193 -0.9958848058123215 0.7263004996265833 C -1.0051647548169163 0.7246573960404018 -1.0113724516754603 0.7158241487072589 -1.009774363762094 0.7065363417570728 C -1.0032982243087174 0.669681801661194 -0.9988891789938594 0.6324937849710709 -0.9965678988262399 0.5951466409533327 C -0.9958629986906811 0.5857464986641002 -0.9877641266571597 0.5786397384546854 -0.9783520851216254 0.5791622644275302 C -0.9738029050610941 0.5794310921397886 -0.9695498684748247 0.5815070039282338 -0.9665393104289577 0.5849280926167194 C -0.9635287523830907 0.5883491813052056 -0.9620104252337431 0.5928316373981412 -0.9623221690615638 0.5973780781321482 C -0.9647570909514913 0.6359293482144625 -0.9693179810816868 0.6743168401436131 -0.9759840293400268 0.7123654021425517 C -0.9775069159411394 0.720502528974556 -0.9846466696569602 0.726375552192409 -0.9929247360853206 0.7263004996265833 Z" fill="#ffffff" transform="matrix(1,0,0,1,0,0)" fill-rule="nonzero"></path></g><g clip-path="url(#SvgjsClipPath10073aa9666b8-2c5d-46b4-9948-234c148df1b2)"><path d=" M -2.855127371108429 -0.01485542048006605 C -2.861404430731263 -0.014881216980530021 -2.8671642031635995 -0.018339579871054834 -2.8701373485288526 -0.023867920454371028 C -2.873110493894108 -0.029396261037687665 -2.872820354726967 -0.036108270544425225 -2.869381245332292 -0.041359429420285365 C -2.6768808294325845 -0.3330126121328797 -2.350669260239435 -0.5083701531049423 -2.0012155641701934 -0.5080485765326012 C -1.9860357194163447 -0.5080485765326014 -1.9709773134205275 -0.5077297997927707 -1.956040346182739 -0.5070922463131091 C -1.9466087999149484 -0.5067024089754861 -1.9392790465636505 -0.4987406045179457 -1.9396688837795613 -0.48930905824512666 C -1.940058720995472 -0.4798775119723076 -1.9480205253584244 -0.4725477585182639 -1.9574520716362749 -0.4729375956124624 C -1.9719791831742801 -0.4735751490966118 -1.9865973736722344 -0.4738939258364426 -2.0012155641701934 -0.4738939258364426 C -2.339216499279755 -0.4742214085632092 -2.65474058924618 -0.3046094567357129 -2.8409190364188266 -0.022506062236005597 C -2.8440979400505415 -0.01776247051558577 -2.8494172695996136 -0.014898216143009124 -2.855127371108429 -0.01485542048006605 Z" fill="#ffffff" transform="matrix(1,0,0,1,0,0)" fill-rule="nonzero"></path></g><g clip-path="url(#SvgjsClipPath10073aa9666b8-2c5d-46b4-9948-234c148df1b2)"><path d=" M -3.0048613597603917 0.3480035885159267 C -3.0099803794245026 0.34802267505247575 -3.014836505120909 0.3457382953833823 -3.018085771296265 0.3417826669959918 C -3.021335037471621 0.33782703860860097 -3.022632805149616 0.3326197219958147 -3.02161990836864 0.3276018771667538 C -3.0063237265378837 0.2510229846074823 -2.982399476660584 0.176423934702713 -2.950304997715064 0.1052323313676301 C -2.946431776010858 0.09663076108945745 -2.936318958999505 0.09279767722225174 -2.9277173887213346 0.09667089892645708 C -2.9191158184431645 0.10054412063066276 -2.9152827345759578 0.11065693764201334 -2.919155956280166 0.11925850792018433 C -2.9501983080861804 0.18810307381748193 -2.973343285884622 0.2602420739258906 -2.988148350686403 0.33429618870320166 C -2.989751033103073 0.342258247206111 -2.99673961225421 0.34799002465704076 -3.0048613597603917 0.3480035885159267 Z" fill="#ffffff" transform="matrix(1,0,0,1,0,0)" fill-rule="nonzero"></path></g><g clip-path="url(#SvgjsClipPath10073aa9666b8-2c5d-46b4-9948-234c148df1b2)"><path d=" M -0.5489142770352533 1.3999212904233613 C -0.5489142770352533 1.5185517771746864 -0.5964120112700448 1.6150045107406394 -0.6547936941933465 1.6150045107406394 C -0.713175377116646 1.6150045107406394 -0.7607186508857011 1.5185517771746864 -0.7607186508857011 1.3999212904233613 C -0.7607186508857011 1.3368034959368593 -0.7306170187388195 1.0535475928300477 -0.7023369679624016 0.8036721683369484 L -0.6072959599585572 0.8036721683369484 C -0.5790159091821354 1.0535475928300473 -0.5489142770352533 1.3368034959368593 -0.5489142770352533 1.3999212904233613 Z" fill="#424242" transform="matrix(1,0,0,1,0,0)" fill-rule="nonzero"></path></g><g clip-path="url(#SvgjsClipPath10073aa9666b8-2c5d-46b4-9948-234c148df1b2)"><path d=" M -0.40000000000000213 -0.20753318994066416 C -0.40000000000000213 -0.03234260163649949 -0.49358374290747786 0.11274635452078374 -0.6161761691395578 0.13811187510446443 L -0.6161761691395578 0.8036721683369484 L -0.6935933773841834 0.8036721683369484 L -0.6935933773841834 0.1381118751044641 C -0.8158214873421721 0.11238203824669135 -0.9093596907153865 -0.03234260163649971 -0.9093596907153865 -0.20753318994066416 C -0.9093596907153865 -0.4008485128809238 -0.7955108550615231 -0.5575500502749012 -0.6547481546590852 -0.5575500502749012 C -0.5139854542566478 -0.5575500502749012 -0.40000000000000213 -0.4008485128809238 -0.40000000000000213 -0.20753318994066416 Z" fill="#424242" transform="matrix(1,0,0,1,0,0)" fill-rule="nonzero"></path></g><g clip-path="url(#SvgjsClipPath10073aa9666b8-2c5d-46b4-9948-234c148df1b2)"><path d=" M -3.223860980024164 1.3796106581427119 C -3.223860980024164 1.4980134472227293 -3.2713587142589557 1.59469387845999 -3.3297403971822552 1.59469387845999 C -3.3881220801055565 1.59469387845999 -3.435665353874612 1.498195605359776 -3.435665353874612 1.3796106581427119 C -3.435665353874612 1.3164928636562103 -3.40556372172773 1.0332369605493987 -3.3772836709513103 0.7833615360562992 L -3.282242662947466 0.7833615360562992 C -3.253962612171046 1.0332369605493978 -3.223860980024164 1.3164928636562094 -3.223860980024164 1.3796106581427119 Z" fill="#424242" transform="matrix(1,0,0,1,0,0)" fill-rule="nonzero"></path></g><g clip-path="url(#SvgjsClipPath10073aa9666b8-2c5d-46b4-9948-234c148df1b2)"><path d=" M -3.074946702988908 -0.4871914698408139 L -3.074946702988908 -0.0736924987459826 C -3.0751676549610654 0.04871598119650411 -3.168812903659722 0.15070018219540515 -3.2907585558543686 0.16133703757785234 L -3.2907585558543686 0.7833615360562992 L -3.3687677780443988 0.7833615360562992 L -3.3687677780443988 0.16097272130376017 C -3.4908184658456434 0.15056383594681122 -3.584574977536692 0.0484369138620695 -3.584534091375602 -0.07405681502007533 L -3.584534091375602 -0.4871914698408139 C -3.5845340913755996 -0.5004770888091664 -3.5792563997899376 -0.5132185634132893 -3.569862048525156 -0.5226129146780718 C -3.560467697260374 -0.5320072659428545 -3.54772622265625 -0.5372849575285145 -3.5344406036878984 -0.5372849575285139 L -3.530842980481236 -0.5372849575285139 C -3.517557361512887 -0.5372849575285145 -3.5048158869087622 -0.5320072659428545 -3.4954215356439806 -0.5226129146780718 C -3.4860271843791986 -0.5132185634132893 -3.4807494927935365 -0.5004770888091664 -3.4807494927935365 -0.4871914698408142 L -3.4807494927935365 -0.05520344783579556 L -3.3795606476643836 -0.05520344783579556 L -3.3795606476643836 -0.4871914698408139 C -3.3795606448381146 -0.514857337151134 -3.357133027293963 -0.537284952404143 -3.3294671599766823 -0.537284952404143 C -3.301801292659402 -0.537284952404143 -3.27937367511525 -0.514857337151134 -3.279373672288981 -0.48719146983385425 L -3.279373672288981 -0.05520344783579556 L -3.1781848271598325 -0.05520344783579556 L -3.1781848271598325 -0.4871914698408139 C -3.1781848271598325 -0.5004770888091664 -3.1729071355741705 -0.5132185634132893 -3.163512784309389 -0.5226129146780718 C -3.154118433044607 -0.5320072659428545 -3.14137695844048 -0.5372849575285145 -3.128091339472131 -0.5372849575285139 L -3.1248580325395596 -0.5372849575285139 C -3.0972633270024583 -0.537184612481904 -3.0749465205427664 -0.5147863578234568 -3.074946702988908 -0.4871914698408142 Z" fill="#424242" transform="matrix(1,0,0,1,0,0)" fill-rule="nonzero"></path></g></g><g><path d=" M 0.183 0.00749999999999984 L 0.2595 0.00749999999999984 L 0.2595 0.9884999999999999 L 0.864 0.9884999999999999 L 0.864 1.0574999999999999 L 0.183 1.0574999999999999 L 0.183 0.00749999999999984 M 1.711497802734375 0.7619999999999999 L 1.102497802734375 0.7619999999999999 L 0.968997802734375 1.0574999999999999 L 0.886497802734375 1.0574999999999999 L 1.369497802734375 0.00749999999999984 L 1.4459978027343752 0.00749999999999984 L 1.928997802734375 1.0574999999999999 L 1.846497802734375 1.0574999999999999 L 1.711497802734375 0.7619999999999999 M 1.682997802734375 0.6974999999999999 L 1.406997802734375 0.09149999999999991 L 1.132497802734375 0.6974999999999999 L 1.682997802734375 0.6974999999999999 M 2.670802001953125 0.9959999999999999 Q 2.547052001953125 0.9269999999999998 2.475802001953125 0.8054999999999999 Q 2.404552001953125 0.6839999999999999 2.404552001953125 0.5324999999999999 Q 2.404552001953125 0.3809999999999999 2.475802001953125 0.25949999999999984 Q 2.547052001953125 0.1379999999999999 2.670802001953125 0.06899999999999984 Q 2.794552001953125 -2.220446049250313e-16 2.949052001953125 -2.220446049250313e-16 Q 3.063052001953125 -2.220446049250313e-16 3.1590520019531247 0.03674999999999984 Q 3.255052001953125 0.0734999999999999 3.3225520019531247 0.14549999999999985 L 3.274552001953125 0.19499999999999984 Q 3.1485520019531252 0.0704999999999999 2.952052001953125 0.0704999999999999 Q 2.820052001953125 0.0704999999999999 2.712052001953125 0.13049999999999984 Q 2.604052001953125 0.1904999999999999 2.542552001953125 0.2962499999999999 Q 2.481052001953125 0.4019999999999999 2.481052001953125 0.5324999999999999 Q 2.481052001953125 0.6629999999999998 2.542552001953125 0.7687499999999998 Q 2.604052001953125 0.8744999999999998 2.712052001953125 0.9344999999999999 Q 2.820052001953125 0.9944999999999999 2.952052001953125 0.9944999999999999 Q 3.147052001953125 0.9944999999999999 3.274552001953125 0.8684999999999998 L 3.3225520019531247 0.9179999999999999 Q 3.255052001953125 0.9899999999999999 3.158302001953125 1.0274999999999999 Q 3.061552001953125 1.065 2.949052001953125 1.065 Q 2.794552001953125 1.065 2.670802001953125 0.9959999999999999 M 4.200084228515625 0.7619999999999999 L 3.591084228515625 0.7619999999999999 L 3.457584228515625 1.0574999999999999 L 3.375084228515625 1.0574999999999999 L 3.858084228515625 0.00749999999999984 L 3.934584228515625 0.00749999999999984 L 4.417584228515625 1.0574999999999999 L 4.335084228515625 1.0574999999999999 L 4.200084228515625 0.7619999999999999 M 4.171584228515625 0.6974999999999999 L 3.895584228515625 0.09149999999999991 L 3.621084228515625 0.6974999999999999 L 4.171584228515625 0.6974999999999999 M 5.46310986328125 0.00749999999999984 L 5.46310986328125 1.0574999999999999 L 5.40010986328125 1.0574999999999999 L 4.68460986328125 0.14549999999999985 L 4.68460986328125 1.0574999999999999 L 4.60810986328125 1.0574999999999999 L 4.60810986328125 0.00749999999999984 L 4.67260986328125 0.00749999999999984 L 5.38660986328125 0.9194999999999999 L 5.38660986328125 0.00749999999999984 L 5.46310986328125 0.00749999999999984 M 6.030148681640625 0.0764999999999999 L 5.652148681640625 0.0764999999999999 L 5.652148681640625 0.00749999999999984 L 6.484648681640625 0.00749999999999984 L 6.484648681640625 0.0764999999999999 L 6.106648681640625 0.0764999999999999 L 6.106648681640625 1.0574999999999999 L 6.030148681640625 1.0574999999999999 L 6.030148681640625 0.0764999999999999 M 6.673631103515625 0.00749999999999984 L 6.750131103515625 0.00749999999999984 L 6.750131103515625 1.0574999999999999 L 6.673631103515625 1.0574999999999999 L 6.673631103515625 0.00749999999999984 M 7.97110546875 0.00749999999999984 L 7.97110546875 1.0574999999999999 L 7.90810546875 1.0574999999999999 L 7.19260546875 0.14549999999999985 L 7.19260546875 1.0574999999999999 L 7.11610546875 1.0574999999999999 L 7.11610546875 0.00749999999999984 L 7.18060546875 0.00749999999999984 L 7.89460546875 0.9194999999999999 L 7.89460546875 0.00749999999999984 L 7.97110546875 0.00749999999999984 M 8.986644287109375 0.7619999999999999 L 8.377644287109375 0.7619999999999999 L 8.244144287109375 1.0574999999999999 L 8.161644287109375 1.0574999999999999 L 8.644644287109376 0.00749999999999984 L 8.721144287109375 0.00749999999999984 L 9.204144287109376 1.0574999999999999 L 9.121644287109374 1.0574999999999999 L 8.986644287109375 0.7619999999999999 M 8.958144287109375 0.6974999999999999 L 8.682144287109375 0.09149999999999991 L 8.407644287109376 0.6974999999999999 L 8.958144287109375 0.6974999999999999" fill="#404040" fill-rule="nonzero"></path></g><g></g></g><defs><clipPath id="SvgjsClipPath10078"><path d=" M -3.5845340913755996 -0.5803653569399353 h 3.1845340913755997 v 2.2182307138798705 h -3.1845340913755997 Z"></path></clipPath><clipPath id="SvgjsClipPath10073aa9666b8-2c5d-46b4-9948-234c148df1b2"><path d=" M -3.5845340913755996 -0.5803653569399353 L -0.3999999999999999 -0.5803653569399353 L -0.3999999999999999 1.637865356939935 L -3.5845340913755996 1.637865356939935 Z"></path></clipPath></defs></svg>